# xmcd
#
# Track frame offsets:
#	151
#	20154
#	51368
#	69807
#	95089
#	108211
#	126349
#	143426
#	162520
#	183598
#	206138
#	220709
#	238052
#	260645
#	281925
#	301040
#	324754
#
# Disc length: 4631
#
# Revision: 1
# Processed by: cddbd v1.5.1PL0 Copyright (c) Steve Scherf et al.
# Submitted via: CDex 1.50beta8
# Normalized: r0:TDELIM( - )
#
DISCID=fd121511
DTITLE=Various Artist - Blues Way Volume 7
DYEAR=1900
DGENRE=Blues
TTITLE0=Shemekia Copeland - It`s 2 A.M.
TTITLE1=Carl Weathersby - Walking The Back Streets and Cryin
TTITLE2=Rusty Zinn - Moonlight Blues
TTITLE3=Elvin Bishop and Little Smothers - Little Red Rooster
TTITLE4=Eddy Clearwater - Susie Q
TTITLE5=Robert Lockwood - This Little Girl of Mine
TTITLE6=B.B. King - Ain`t  Nobody Like Me Baby
TTITLE7=Malvin Taylor - If You`re Goin to The City
TTITLE8=Koko Taylor - Buton The Other Hand
TTITLE9=Coco Montoya - Nothing but Love
TTITLE10=Bill Wyman`s Rhytm Kings - Green River
TTITLE11=James Cotton - That`s All Right
TTITLE12=Robin Trower - Into Dust
TTITLE13=John Primer - That`s All Right
TTITLE14=Kenny Neal - Blues Ain`t Nothing but a Good Man Feeling Bad
TTITLE15=Shemekia Copeland - The Other Woman
TTITLE16=Rusty Zinn - Fallin` Rain
EXTD=
EXTT0=
EXTT1=
EXTT2=
EXTT3=
EXTT4=
EXTT5=
EXTT6=
EXTT7=
EXTT8=
EXTT9=
EXTT10=
EXTT11=
EXTT12=
EXTT13=
EXTT14=
EXTT15=
EXTT16=
PLAYORDER=
